<?xml version="1.0" encoding="utf-8"?>
<!-- Generator: Adobe Illustrator 18.1.1, SVG Export Plug-In . SVG Version: 6.00 Build 0)  -->
<svg version="1.1" id="图层_1" xmlns="http://www.w3.org/2000/svg" xmlns:xlink="http://www.w3.org/1999/xlink" x="0px" y="0px"
	 viewBox="0 0 652 652" enable-background="new 0 0 652 652" xml:space="preserve">
<linearGradient id="SVGID_1_" gradientUnits="userSpaceOnUse" x1="-2269.4023" y1="-704.2628" x2="-2083.9048" y2="-704.2628" gradientTransform="matrix(-0.7071 -0.7071 -0.7071 0.7071 -1649.3615 -652.5803)">
	<stop  offset="0" style="stop-color:#72C8D5"/>
	<stop  offset="9.484699e-002" style="stop-color:#6FC4D1"/>
	<stop  offset="0.2067" style="stop-color:#67B7C4"/>
	<stop  offset="0.3273" style="stop-color:#5BA1AF"/>
	<stop  offset="0.4539" style="stop-color:#4B8593"/>
	<stop  offset="0.5854" style="stop-color:#376372"/>
	<stop  offset="0.7208" style="stop-color:#224052"/>
	<stop  offset="0.857" style="stop-color:#0A1E34"/>
	<stop  offset="0.8886" style="stop-color:#07152E"/>
</linearGradient>
<path fill="url(#SVGID_1_)" d="M322.2,399.8l0-76.8l76.8,0c20.5,0,39.8,8,54.3,22.5c14.5,14.5,22.5,33.8,22.5,54.3
	c0,20.5-8,39.8-22.5,54.3c-14.5,14.5-33.8,22.5-54.3,22.5c-20.5,0-39.8-8-54.3-22.5C330.1,439.6,322.2,420.3,322.2,399.8z M399,330
	l-69.8,0l0,69.8c0,18.7,7.3,36.2,20.5,49.4c13.2,13.2,30.7,20.5,49.4,20.5c18.7,0,36.2-7.3,49.4-20.5c13.2-13.2,20.5-30.7,20.5-49.4
	c0-18.7-7.3-36.2-20.5-49.4C435.2,337.2,417.6,330,399,330z"/>
<linearGradient id="SVGID_2_" gradientUnits="userSpaceOnUse" x1="-2069.23" y1="-978.4357" x2="-1883.7325" y2="-978.4357" gradientTransform="matrix(-0.7071 0.7071 -0.7071 -0.7071 -1701.6874 969.8144)">
	<stop  offset="0" style="stop-color:#72C8D5"/>
	<stop  offset="9.484699e-002" style="stop-color:#6FC4D1"/>
	<stop  offset="0.2067" style="stop-color:#67B7C4"/>
	<stop  offset="0.3273" style="stop-color:#5BA1AF"/>
	<stop  offset="0.4539" style="stop-color:#4B8593"/>
	<stop  offset="0.5854" style="stop-color:#376372"/>
	<stop  offset="0.7208" style="stop-color:#224052"/>
	<stop  offset="0.857" style="stop-color:#0A1E34"/>
	<stop  offset="0.8886" style="stop-color:#07152E"/>
</linearGradient>
<path fill="url(#SVGID_2_)" d="M344.7,198.5C359.2,184,378.5,176,399,176c20.5,0,39.8,8,54.3,22.5c14.5,14.5,22.5,33.8,22.5,54.3
	c0,20.5-8,39.8-22.5,54.3c-14.5,14.5-33.8,22.5-54.3,22.5l-76.8,0l0-76.8C322.2,232.3,330.1,213,344.7,198.5z M448.4,302.2
	c13.2-13.2,20.5-30.7,20.5-49.4c0-18.7-7.3-36.2-20.5-49.4C435.2,190.3,417.6,183,399,183c-18.7,0-36.2,7.3-49.4,20.5
	c-13.2,13.2-20.5,30.7-20.5,49.4l0,69.8l69.8,0C417.6,322.7,435.2,315.4,448.4,302.2z"/>
<linearGradient id="SVGID_3_" gradientUnits="userSpaceOnUse" x1="-121.4698" y1="-704.2629" x2="64.0275" y2="-704.2629" gradientTransform="matrix(0.7071 0.7071 -0.7071 0.7071 -214.3919 782.3894)">
	<stop  offset="0" style="stop-color:#72C8D5"/>
	<stop  offset="9.484699e-002" style="stop-color:#6FC4D1"/>
	<stop  offset="0.2067" style="stop-color:#67B7C4"/>
	<stop  offset="0.3273" style="stop-color:#5BA1AF"/>
	<stop  offset="0.4539" style="stop-color:#4B8593"/>
	<stop  offset="0.5854" style="stop-color:#376372"/>
	<stop  offset="0.7208" style="stop-color:#224052"/>
	<stop  offset="0.857" style="stop-color:#0A1E34"/>
	<stop  offset="0.8886" style="stop-color:#07152E"/>
</linearGradient>
<path fill="url(#SVGID_3_)" d="M197.7,307.2c-14.5-14.5-22.5-33.8-22.5-54.3c0-20.5,8-39.8,22.5-54.3C212.2,184,231.5,176,252,176
	c20.5,0,39.8,8,54.3,22.5c14.5,14.5,22.5,33.8,22.5,54.3l0,76.8l-76.8,0C231.5,329.7,212.2,321.7,197.7,307.2z M301.4,203.5
	C288.2,190.3,270.7,183,252,183c-18.7,0-36.2,7.3-49.4,20.5c-13.2,13.2-20.5,30.7-20.5,49.4c0,18.7,7.3,36.2,20.5,49.4
	c13.2,13.2,30.7,20.5,49.4,20.5l69.8,0l0-69.8C321.9,234.2,314.6,216.7,301.4,203.5z"/>
<linearGradient id="SVGID_4_" gradientUnits="userSpaceOnUse" x1="-321.6421" y1="-978.4357" x2="-136.1447" y2="-978.4357" gradientTransform="matrix(0.7071 -0.7071 -0.7071 -0.7071 -266.7178 -465.1552)">
	<stop  offset="0" style="stop-color:#72C8D5"/>
	<stop  offset="9.484699e-002" style="stop-color:#6FC4D1"/>
	<stop  offset="0.2067" style="stop-color:#67B7C4"/>
	<stop  offset="0.3273" style="stop-color:#5BA1AF"/>
	<stop  offset="0.4539" style="stop-color:#4B8593"/>
	<stop  offset="0.5854" style="stop-color:#376372"/>
	<stop  offset="0.7208" style="stop-color:#224052"/>
	<stop  offset="0.857" style="stop-color:#0A1E34"/>
	<stop  offset="0.8886" style="stop-color:#07152E"/>
</linearGradient>
<path fill="url(#SVGID_4_)" d="M252,323l76.8,0l0,76.8c0,20.5-8,39.8-22.5,54.3c-14.5,14.5-33.8,22.5-54.3,22.5
	c-20.5,0-39.8-8-54.3-22.5c-14.5-14.5-22.5-33.8-22.5-54.3c0-20.5,8-39.8,22.5-54.3C212.2,331,231.5,323,252,323z M321.9,399.8
	l0-69.8l-69.8,0c-18.7,0-36.2,7.3-49.4,20.5c-13.2,13.2-20.5,30.7-20.5,49.4c0,18.7,7.3,36.2,20.5,49.4
	c13.2,13.2,30.7,20.5,49.4,20.5c18.7,0,36.2-7.3,49.4-20.5C314.6,436,321.9,418.5,321.9,399.8z"/>
</svg>
