<?xml version="1.0" encoding="utf-8"?>
<!-- Generator: Adobe Illustrator 18.1.1, SVG Export Plug-In . SVG Version: 6.00 Build 0)  -->
<svg version="1.1" id="图层_1" xmlns="http://www.w3.org/2000/svg" xmlns:xlink="http://www.w3.org/1999/xlink" x="0px" y="0px"
	 viewBox="0 0 652 652" enable-background="new 0 0 652 652" xml:space="preserve">
<linearGradient id="SVGID_1_" gradientUnits="userSpaceOnUse" x1="-2536.7612" y1="327.3218" x2="-2351.2656" y2="327.3218" gradientTransform="matrix(-1 0 0 1 -2029.5044 0)">
	<stop  offset="0" style="stop-color:#0C6BB0"/>
	<stop  offset="0.2859" style="stop-color:#144A79"/>
	<stop  offset="0.8238" style="stop-color:#07152E"/>
</linearGradient>
<path fill="url(#SVGID_1_)" d="M376.1,381.7l-54.3-54.3l54.3-54.3c14.5-14.5,33.8-22.5,54.3-22.5c20.5,0,39.8,8,54.3,22.5
	c14.5,14.5,22.5,33.8,22.5,54.3c0,20.5-8,39.8-22.5,54.3c-14.5,14.5-33.8,22.5-54.3,22.5C409.9,404.2,390.6,396.2,376.1,381.7z
	 M381,277.9l-49.4,49.4l49.4,49.4c13.2,13.2,30.7,20.5,49.4,20.5c18.7,0,36.2-7.3,49.4-20.5c13.2-13.2,20.5-30.7,20.5-49.4
	c0-18.7-7.3-36.2-20.5-49.4c-13.2-13.2-30.7-20.5-49.4-20.5C411.8,257.5,394.2,264.8,381,277.9z"/>
<linearGradient id="SVGID_2_" gradientUnits="userSpaceOnUse" x1="-1037.6323" y1="-1245.8071" x2="-852.1367" y2="-1245.8071" gradientTransform="matrix(0 1 -1 0 -919.2981 1184.2063)">
	<stop  offset="0" style="stop-color:#0C6BB0"/>
	<stop  offset="0.2859" style="stop-color:#144A79"/>
	<stop  offset="0.8238" style="stop-color:#07152E"/>
</linearGradient>
<path fill="url(#SVGID_2_)" d="M249.7,223.4c0-20.5,8-39.8,22.5-54.3c14.5-14.5,33.8-22.5,54.3-22.5c20.5,0,39.8,8,54.3,22.5
	c14.5,14.5,22.5,33.8,22.5,54.3c0,20.5-8,39.8-22.5,54.3l-54.3,54.3l-54.3-54.3C257.7,263.2,249.7,243.9,249.7,223.4z M396.3,223.4
	c0-18.7-7.3-36.2-20.5-49.4c-13.2-13.2-30.7-20.5-49.4-20.5c-18.7,0-36.2,7.3-49.4,20.5c-13.2,13.2-20.5,30.7-20.5,49.4
	c0,18.7,7.3,36.2,20.5,49.4l49.4,49.4l49.4-49.4C389.1,259.6,396.3,242.1,396.3,223.4z"/>
<linearGradient id="SVGID_3_" gradientUnits="userSpaceOnUse" x1="145.7612" y1="327.3218" x2="331.2568" y2="327.3218">
	<stop  offset="0" style="stop-color:#0C6BB0"/>
	<stop  offset="0.2859" style="stop-color:#144A79"/>
	<stop  offset="0.8238" style="stop-color:#07152E"/>
</linearGradient>
<path fill="url(#SVGID_3_)" d="M222.6,404.2c-20.5,0-39.8-8-54.3-22.5c-14.5-14.5-22.5-33.8-22.5-54.3c0-20.5,8-39.8,22.5-54.3
	c14.5-14.5,33.8-22.5,54.3-22.5c20.5,0,39.8,8,54.3,22.5l54.3,54.3l-54.3,54.3C262.4,396.2,243.1,404.2,222.6,404.2z M222.6,257.5
	c-18.7,0-36.2,7.3-49.4,20.5c-13.2,13.2-20.5,30.7-20.5,49.4c0,18.7,7.3,36.2,20.5,49.4c13.2,13.2,30.7,20.5,49.4,20.5
	c18.7,0,36.2-7.3,49.4-20.5l49.4-49.4L272,277.9C258.8,264.8,241.2,257.5,222.6,257.5z"/>
<linearGradient id="SVGID_4_" gradientUnits="userSpaceOnUse" x1="-1353.3677" y1="-1245.8071" x2="-1167.8721" y2="-1245.8071" gradientTransform="matrix(0 -1 -1 0 -919.2981 -845.2981)">
	<stop  offset="0" style="stop-color:#0C6BB0"/>
	<stop  offset="0.2859" style="stop-color:#144A79"/>
	<stop  offset="0.8238" style="stop-color:#07152E"/>
</linearGradient>
<path fill="url(#SVGID_4_)" d="M272.2,376.9l54.3-54.3l54.3,54.3c14.5,14.5,22.5,33.8,22.5,54.3c0,20.5-8,39.8-22.5,54.3
	c-14.5,14.5-33.8,22.5-54.3,22.5c-20.5,0-39.8-8-54.3-22.5c-14.5-14.5-22.5-33.8-22.5-54.3C249.7,410.7,257.7,391.4,272.2,376.9z
	 M375.9,381.9l-49.4-49.4l-49.4,49.4c-13.2,13.2-20.5,30.7-20.5,49.4c0,18.7,7.3,36.2,20.5,49.4c13.2,13.2,30.7,20.5,49.4,20.5
	c18.7,0,36.2-7.3,49.4-20.5c13.2-13.2,20.5-30.7,20.5-49.4C396.3,412.6,389.1,395,375.9,381.9z"/>
</svg>
