<?xml version="1.0" encoding="utf-8"?>
<!-- Generator: Adobe Illustrator 18.1.1, SVG Export Plug-In . SVG Version: 6.00 Build 0)  -->
<svg version="1.1" id="图层_1" xmlns="http://www.w3.org/2000/svg" xmlns:xlink="http://www.w3.org/1999/xlink" x="0px" y="0px"
	 viewBox="0 0 184.7 126.7" enable-background="new 0 0 184.7 126.7" xml:space="preserve">
<g>
	<g>
		<g>
			<path fill="#33A1D2" d="M171.3,4.3H14.8C9.4,4.3,5,8.7,5,14.1V20l83.1,49.8c3,1.7,6.8,1.7,9.8,0L181.1,20v-5.9
				c0-2.6-1-5.1-2.9-6.9C176.4,5.4,173.9,4.3,171.3,4.3L171.3,4.3z M83.3,86.3L5,39.6v72.4c0,2.6,1,5.1,2.9,6.9
				c1.8,1.8,4.3,2.9,6.9,2.9h156.5c2.6,0,5.1-1,6.9-2.9c1.8-1.8,2.9-4.3,2.9-6.9V39.6l-78.3,46.8C96.8,89.8,89.3,89.8,83.3,86.3
				L83.3,86.3z M83.3,86.3"/>
		</g>
	</g>
</g>
</svg>
