<?xml version="1.0" encoding="utf-8"?>
<!-- Generator: Adobe Illustrator 18.1.1, SVG Export Plug-In . SVG Version: 6.00 Build 0)  -->
<svg version="1.1" id="图层_1" xmlns="http://www.w3.org/2000/svg" xmlns:xlink="http://www.w3.org/1999/xlink" x="0px" y="0px"
	 viewBox="0 0 404.7 134.5" enable-background="new 0 0 404.7 134.5" xml:space="preserve">
<g>
	<g>
		<g>
			<path fill="#FFFFFF" d="M247,80.4c0,1.9,1.6,3.5,3.5,3.5h18.4V24.6H247V80.4z M255.7,30.2h4.4v48.2h-2.9c-0.8,0-1.4-0.6-1.4-1.4
				V30.2z"/>
			<rect x="271.6" y="24.6" fill="#FFFFFF" width="8.8" height="62.6"/>
			<path fill="#FFFFFF" d="M316.5,24.2l-24.2,0l0-2.5l-8.8,0l0,8.1l24.2,0l0,49.9c0,0.8-0.6,1.4-1.4,1.4l-3.4,0v6.1l6.6,0
				c3.9,0,7-3.1,7-7L316.5,24.2z"/>
			<path fill="#FFFFFF" d="M304.6,35h-21.2v37.3c0,1.9,1.6,3.5,3.5,3.5h17.7V35z M295.9,70.2h-2.3c-0.8,0-1.4-0.6-1.4-1.4V40.6h3.7
				V70.2z"/>
		</g>
		<g>
			<path fill="#FFFFFF" d="M324.4,21.8v65.1h8.8V27.4h51.7v52.1c0,0.8-0.6,1.4-1.4,1.4h-3.3V87h6.5c3.8,0,7-3.1,7-7V21.8H324.4z"/>
			<polygon fill="#FFFFFF" points="349.7,42.4 347,47.3 344.3,42.4 344.3,32.2 337.3,32.2 337.3,44.2 343,54.6 337.3,65.1 
				337.3,76.7 344.3,76.7 344.3,66.9 347,62 349.7,66.9 349.7,76.7 356.7,76.7 356.7,65.1 351,54.6 356.7,44.2 356.7,32.2 
				349.7,32.2 			"/>
			<polygon fill="#FFFFFF" points="380.5,76.7 380.5,65.1 374.8,54.6 380.5,44.2 380.5,32.2 373.5,32.2 373.5,42.4 370.8,47.3 
				368.1,42.4 368.1,32.2 361.1,32.2 361.1,44.2 366.8,54.6 361.1,65.1 361.1,76.7 368.1,76.7 368.1,66.9 370.8,62 373.5,66.9 
				373.5,76.7 			"/>
		</g>
		<g>
			<path fill="#FFFFFF" d="M225.5,25.8H225l0.2-4.1h-8.8l-0.2,4.1h-4.9v5.6h4.6l-3.3,55.8h8.8l3.3-55.8h0.3h5.4v47.9
				c0,1-0.8,1.8-1.8,1.8h-2.9v6.1h6.5c3.8,0,7-3.1,7-7V25.8H225.5z"/>
			<path fill="#FFFFFF" d="M194.2,39.6h14.3V34h-14h-8.8h-7.1v-6.7h29.8v-5.6h-38.7v65.4h8.8V39.6h6.8l-2.9,47.6h8.8l2.1-34.9h6.4
				v27.4c0,0.8-0.7,1.5-1.5,1.5H195v6.1h6.6c3.8,0,7-3.1,7-7V46.7h-14.8L194.2,39.6z"/>
		</g>
		<g>
			<polygon fill="#FFFFFF" points="271,98.9 267.9,107.8 264.8,98.9 259.9,98.9 265.6,115.1 270.2,115.1 275.9,98.9 			"/>
			<g>
				<rect x="279.8" y="98.9" fill="#FFFFFF" width="5" height="16.2"/>
				<rect x="279.8" y="94.9" fill="#FFFFFF" width="5" height="2.6"/>
			</g>
			<path fill="#FFFFFF" d="M354.8,98.9L354.8,98.9v2.4v11.3l0,0c0,1.4,1.1,2.4,2.4,2.4h2.5h4.1h5v-2.4v-11.3v-2.4v0H354.8z
				 M363.8,112.7h-2.7c-0.7,0-1.3-0.6-1.3-1.3v-10h4.1V112.7z"/>
			<polygon fill="#FFFFFF" points="393.2,98.9 393.2,101.4 393.2,115.1 388.2,115.1 388.2,101.4 385.7,101.4 385.7,115.1 
				380.7,115.1 380.7,101.4 378,101.4 378,115.1 373.1,115.1 373.1,98.9 373.1,98.9 			"/>
			<rect x="327.5" y="110.8" fill="#FFFFFF" width="4.3" height="4.3"/>
			<path fill="#FFFFFF" d="M302.7,101.4v-2.4H289v0v2.4v11.3l0,0c0,1.4,1.1,2.4,2.4,2.4h2.5h8.7v-2.4h-7.5c-0.7,0-1.2-0.5-1.2-1.2
				v-10.1H302.7z"/>
			<path fill="#FFFFFF" d="M350.7,101.4v-2.4H337v0v2.4v11.3l0,0c0,1.4,1.1,2.4,2.4,2.4h2.5h8.7v-2.4h-7.5c-0.7,0-1.2-0.5-1.2-1.2
				v-10.1H350.7z"/>
			<rect x="208" y="106.5" fill="#FFFFFF" width="10.5" height="2.4"/>
			<polygon fill="#FFFFFF" points="201.6,98.9 196.9,98.9 194.7,106.1 192.4,98.9 187.8,98.9 190.4,107 187.8,115.1 192.4,115.1 
				194.7,107.9 196.9,115.1 201.6,115.1 199,107 			"/>
			<path fill="#FFFFFF" d="M174.9,111.5V94.9h-5v17.2v0.6c0,1.3,1.1,2.4,2.4,2.4h4h8.1v-2.4H176
				C175.4,112.7,174.9,112.2,174.9,111.5z"/>
			<path fill="#FFFFFF" d="M233.4,94.9v4h-9v13.7c0,1.3,1.1,2.4,2.4,2.4l11.6,0V94.9H233.4z M233.4,112.7h-2.8
				c-0.7,0-1.3-0.6-1.3-1.3v-10h4.1V112.7z"/>
			<path fill="#FFFFFF" d="M256.6,108.4v-9.4h-13.7v13.7c0,1.3,1.1,2.4,2.4,2.4h11.3v-2.4h-7.5c-0.7,0-1.2-0.5-1.2-1.2v-3.1H256.6z
				 M247.9,101.4h4.1v4.5h-4.1V101.4z"/>
			<path fill="#FFFFFF" d="M320.7,108.4v-9.4H307v13.7c0,1.3,1.1,2.4,2.4,2.4h11.3v-2.4h-7.5c-0.7,0-1.2-0.5-1.2-1.2v-3.1H320.7z
				 M311.9,101.4h4.1v4.5h-4.1V101.4z"/>
		</g>
	</g>
	<g>
		<path fill="#FFFFFF" d="M104.9,60.4C67.5,84.4,30.1,92.8,21.5,79.2c-1.8-2.9-2.2-6.5-1.4-10.6c-6.1,9.8-8,18.3-4.4,23.9
			c8.7,13.6,46.1,5.2,83.5-18.8c29.5-18.9,50.2-41.8,53.4-57.3C143.9,30.2,126.8,46.4,104.9,60.4z"/>
		<path fill="#FFFFFF" d="M147.3,57.5c-3.9-0.6-7-3.3-8.3-7c0,0,0-0.1,0-0.1c-0.3-0.8-0.4-1.6-0.5-2.4
			c-9.9,10.7-22.8,21.3-37.4,30.6C83.6,89.7,65.5,98,49.8,102c2.3,0.2,4.4,1.1,6.2,2.6c0,0,0.1,0.1,0.1,0.1
			c2.9,2.6,4.1,6.6,3.1,10.4l-0.5,1.8l9.6,4.8l1.1-1.4c2.4-3.1,6.4-4.4,10.2-3.6c0,0,0.1,0,0.1,0c3.8,0.8,6.9,3.7,7.9,7.4l0.5,1.8
			l10.7-0.6l0.3-1.8c0.6-3.9,3.3-7,7-8.3c0,0,0.1,0,0.1,0c3.7-1.2,7.8-0.3,10.6,2.5l1.3,1.3l9-5.9l-0.7-1.7c-1.4-3.6-0.6-7.8,2-10.7
			c0,0,0.1-0.1,0.1-0.1c2.6-2.9,6.6-4.1,10.4-3.1l1.8,0.5l4.8-9.6l-1.4-1.1c-3.1-2.4-4.4-6.4-3.6-10.2c0,0,0-0.1,0-0.1
			c0.8-3.8,3.7-6.9,7.4-7.9l1.8-0.5l-0.6-10.7L147.3,57.5z"/>
		<path fill="#FFFFFF" d="M124.5,28.3C124.5,28.2,124.5,28.2,124.5,28.3c-3-2.7-4.2-6.7-3.2-10.5l0.5-1.8l-9.6-4.8l-1.1,1.4
			c-2.4,3.1-6.4,4.4-10.2,3.6c0,0-0.1,0-0.1,0c-3.8-0.8-6.9-3.7-7.9-7.4L92.3,7L81.6,7.6l-0.3,1.8c-0.6,3.9-3.3,7-7,8.3
			c0,0-0.1,0-0.1,0c-3.7,1.2-7.8,0.3-10.6-2.5L62.4,14l-9,5.9l0.7,1.7c1.4,3.6,0.6,7.8-2,10.7c0,0-0.1,0.1-0.1,0.1
			c-2.6,2.9-6.6,4.1-10.4,3.1l-1.8-0.5L35,44.5l1.4,1.1c3.1,2.4,4.4,6.4,3.6,10.2c0,0,0,0.1,0,0.1c-0.8,3.8-3.7,6.9-7.4,7.9
			l-1.8,0.5l0.6,10.7l1.8,0.3c3.3,0.5,6.1,2.6,7.6,5.5c2.9-0.2,6.2-0.7,9.6-1.5c-1.3-4.1-2-8.4-2-12.9c0-23.1,18.7-41.8,41.8-41.8
			c13.3,0,25.2,6.2,32.9,15.9c2.1-1.8,4.2-3.7,6.2-5.5c1.6-1.5,3.1-2.9,4.5-4.4C130.6,31.4,127.1,30.6,124.5,28.3z"/>
		<circle fill="#FFFFFF" cx="90.9" cy="66.3" r="7.1"/>
		<circle fill="#FFFFFF" cx="94.5" cy="42.8" r="7.1"/>
		<circle fill="#FFFFFF" cx="69" cy="55.9" r="7.1"/>
	</g>
</g>
</svg>
